<svg xmlns="http://www.w3.org/2000/svg" viewBox="0 0 50 50" width="50" height="50">
    <path style="text-indent:0;text-align:start;line-height:normal;text-transform:none;block-progression:tb;-inkscape-font-specification:Sans" d="M 29.84375 6 C 28.191524 6 27.019486 7.0934127 26.25 8.03125 C 26.044783 8.281365 26.092282 8.2995374 25.9375 8.53125 C 25.922801 8.5134886 25.92125 8.5177901 25.90625 8.5 C 25.345823 7.8353409 24.558346 7 23.3125 7 C 22.677337 7 22.091664 7.2943324 21.6875 7.6875 C 21.283336 8.0806676 21.016556 8.5706665 20.78125 9.09375 C 20.310638 10.139917 20.012893 11.409882 19.8125 12.65625 C 19.79275 12.779088 19.76766 12.880764 19.75 13 C 19.421832 12.641474 18.968651 12.34375 18.34375 12.34375 C 17.440739 12.34375 17.021485 12.921766 16.625 13.4375 C 16.228515 13.953234 15.86451 14.564584 15.53125 15.25 C 14.94125 16.463453 14.486968 17.764676 14.1875 18.8125 C 12.729848 19.539938 11.496722 20.222251 10.4375 20.8125 L 8.5625 20.5625 C 8.5625 20.5625 8.4485082 21.251776 8.375 22 C 6.6897425 23.022712 5.7624889 23.687891 5.5625 23.84375 C 5.2200975 23.792933 4.4915221 23.668739 3.375 23.71875 C 2.6970448 23.749117 2.0085102 23.816864 1.34375 24.125 C 0.67898978 24.433136 -7.4014868e-17 25.186229 0 26.09375 C 0 27.993919 0.92246439 29.486227 2.09375 30.4375 C 3.2158255 31.348807 4.5360366 31.801843 5.71875 32.0625 C 7.1673817 33.506987 9.4061163 34.500234 11.46875 35.21875 C 13.106477 35.789251 13.86694 35.960796 14.53125 36.125 C 14.419302 36.477651 14.28125 36.797991 14.28125 37.25 C 14.28125 38.654448 15.208277 39.954486 16.71875 40.90625 C 18.229223 41.858014 20.384208 42.520284 23.1875 42.78125 C 24.159136 42.87144 26.546532 42.937934 28.8125 42.96875 C 31.078468 42.999566 33.15625 43 33.15625 43 L 33.6875 43 L 34 42.53125 C 33.98009 42.56172 34.130922 42.368152 34.34375 42.125 C 34.556578 41.881848 34.844103 41.558747 35.1875 41.1875 C 35.874295 40.445007 36.77169 39.508299 37.75 38.5 C 39.706621 36.483402 41.987592 34.219214 43.375 32.96875 C 44.961938 31.539085 46.53281 29.967606 47.75 28.625 C 48.358595 27.953697 48.89748 27.347651 49.28125 26.8125 C 49.473135 26.544924 49.622128 26.311548 49.75 26.0625 C 49.877872 25.813452 50 25.569988 50 25.15625 C 50 24.389315 49.598019 24.064543 49.25 23.71875 C 48.901981 23.372957 48.477621 23.071381 48 22.75 C 47.044759 22.107238 45.903403 21.499002 44.90625 21.125 C 43.215333 20.490788 40.499686 19.328333 40.3125 19.25 C 40.209874 19.147609 39.559257 18.485273 39.46875 18.09375 C 39.41076 17.841775 39.225153 16.303323 38.84375 14.90625 C 38.653048 14.207714 38.406389 13.511995 38 12.90625 C 37.593611 12.300505 36.914268 11.71875 36.03125 11.71875 C 35.300151 11.71875 34.767775 12.099106 34.375 12.5 C 34.16147 12.717944 33.976802 12.944723 33.8125 13.1875 C 33.684686 12.594428 33.533362 11.955512 33.34375 11.25 C 33.031298 10.087421 32.634295 8.9249462 32.15625 7.96875 C 31.917227 7.4906519 31.660899 7.049541 31.3125 6.6875 C 30.964101 6.325459 30.464959 6 29.84375 6 z M 29.78125 8 C 29.78572 8.007012 29.811775 8.028048 29.875 8.09375 C 30.001453 8.2251543 30.191116 8.4759419 30.375 8.84375 C 30.742767 9.5793663 31.112452 10.688079 31.40625 11.78125 C 31.826381 13.344485 32.051413 14.632399 32.1875 15.40625 C 31.257631 15.804342 29.383747 16.464176 26.65625 16.625 C 24.21704 16.76835 22.295936 16.525409 21.46875 16.40625 C 21.525047 15.506556 21.595571 14.317949 21.8125 12.96875 C 21.997982 11.815118 22.254643 10.660083 22.59375 9.90625 C 22.763304 9.5293335 22.95823 9.2568324 23.09375 9.125 C 23.22927 8.9931676 23.253913 9 23.3125 9 C 23.444654 9 23.964927 9.3261591 24.375 9.8125 C 24.785073 10.298841 25.0625 10.78125 25.0625 10.78125 A 1.0001 1.0001 0 0 0 26.84375 10.71875 C 26.84375 10.71875 27.193236 9.9979127 27.78125 9.28125 C 28.352492 8.585029 29.076778 8.0309633 29.78125 8 z M 36.03125 13.71875 C 36.09873 13.71875 36.144764 13.7034 36.34375 14 C 36.542736 14.296599 36.746452 14.820911 36.90625 15.40625 C 37.225847 16.576927 37.334988 17.845475 37.5 18.5625 C 37.723457 19.529152 38.304622 20.191653 38.71875 20.5625 A 1.0001 1.0001 0 0 0 38.71875 20.90625 C 38.71875 20.90625 38.832238 21.73325 38.90625 22.78125 L 30.8125 23.46875 L 13.78125 21.25 C 14.315319 20.974151 14.835727 20.702465 15.4375 20.40625 L 15.875 20.21875 L 15.96875 19.75 C 16.193669 18.864718 16.74927 17.347668 17.34375 16.125 C 17.64099 15.513666 17.96211 14.990079 18.21875 14.65625 C 18.290039 14.56352 18.321969 14.545991 18.375 14.5 C 18.389404 14.517906 18.389992 14.508451 18.40625 14.53125 C 18.586571 14.784109 18.794543 15.238206 18.96875 15.6875 C 19.160926 16.18314 19.277942 16.650971 19.375 17 C 19.156509 17.100679 19.021029 17.154225 18.65625 17.375 C 18.316657 17.580532 17.972453 17.817066 17.65625 18.125 C 17.340047 18.432934 16.96875 18.82586 16.96875 19.5 C 16.96875 20.094528 17.301098 20.410563 17.5625 20.625 C 17.823902 20.839437 18.135146 21.007908 18.46875 21.15625 C 19.135957 21.452935 19.980643 21.707893 21 21.90625 C 23.038714 22.302964 25.700173 22.477771 28.40625 22.03125 C 31.571614 21.509266 33.376961 20.750278 34.46875 20 C 35.014645 19.624861 35.391842 19.238077 35.625 18.875 C 35.858158 18.511923 35.96875 18.253935 35.96875 17.875 C 35.96985 17.464426 35.835557 17.301117 35.75 17.15625 C 35.66444 17.011383 35.596481 16.899999 35.5 16.78125 C 35.307037 16.543753 35.063279 16.313279 34.84375 16.09375 C 34.737948 15.987948 34.698143 15.976111 34.625 15.90625 C 34.722475 15.637317 34.893136 15.252178 35.15625 14.78125 C 35.352603 14.429811 35.588931 14.102544 35.78125 13.90625 C 35.973569 13.709956 36.091849 13.71875 36.03125 13.71875 z M 33.09375 17.1875 C 33.232412 17.3127 33.269156 17.331656 33.4375 17.5 C 33.588906 17.651406 33.730559 17.776527 33.84375 17.90625 C 33.76002 18.017596 33.649797 18.164685 33.34375 18.375 C 32.613289 18.876972 31.077386 19.539234 28.09375 20.03125 C 25.678827 20.429729 23.190536 20.290786 21.375 19.9375 C 20.508266 19.768842 19.837189 19.540441 19.375 19.34375 C 19.489188 19.26005 19.55302 19.175141 19.6875 19.09375 C 20.212813 18.775814 20.78125 18.53125 20.78125 18.53125 A 1.0001 1.0001 0 0 0 21.03125 18.375 C 22.106649 18.511931 24.344112 18.736978 26.78125 18.59375 C 29.753906 18.418471 31.927751 17.665827 33.09375 17.1875 z M 40.8125 21.625 C 41.758164 22.013466 42.928165 22.488767 43.9375 22.875 L 44.21875 23 C 45.010597 23.296998 46.090741 23.857512 46.90625 24.40625 C 47.314004 24.680619 47.63955 24.953356 47.84375 25.15625 C 47.88652 25.19875 47.88353 25.21413 47.90625 25.25 C 47.84265 25.360324 47.776057 25.489184 47.65625 25.65625 C 47.346583 26.088068 46.857905 26.645178 46.28125 27.28125 C 45.12794 28.553394 43.572312 30.080415 42.03125 31.46875 C 40.561658 32.793286 38.286879 35.058848 36.3125 37.09375 C 35.32531 38.111201 34.421455 39.084056 33.71875 39.84375 C 33.367397 40.223597 33.076109 40.547035 32.84375 40.8125 C 32.77659 40.88923 32.742043 40.937003 32.6875 41 C 32.521611 40.99899 31.536924 41.002978 31 41 C 31.045076 40.216155 31.482732 39.349383 32.3125 38.34375 C 33.186615 37.284371 34.415467 36.135913 35.6875 34.84375 C 38.231567 32.259424 40.96875 29.02805 40.96875 24.53125 C 40.96875 23.367773 40.884665 22.369966 40.8125 21.625 z M 11.84375 23.03125 L 15.1875 23.46875 C 14.891036 23.634677 14.6875 24.016014 14.6875 24.46875 C 14.6875 24.921485 14.891036 25.334074 15.1875 25.5 C 14.933334 25.510315 14.649688 25.493679 14.3125 25.4375 C 11.6905 25.0005 11.84375 23.03125 11.84375 23.03125 z M 15.90625 23.53125 L 16.8125 23.65625 C 16.8125 23.65625 17.016666 24.757059 16.09375 25.25 C 16.243227 25.052206 16.3125 24.770573 16.3125 24.46875 C 16.3125 24.060767 16.156598 23.719025 15.90625 23.53125 z M 8.4375 24.3125 C 8.6908021 25.773089 9.5056288 27.749216 12.28125 28.0625 C 16.85425 28.5785 18.6875 24.78125 18.6875 24.78125 L 19.8125 24.65625 C 19.8125 24.65625 20.80775 30.6745 25.46875 30.5625 C 30.62875 30.4385 30.75 25.84375 30.75 25.84375 L 38.9375 25.34375 C 38.637792 28.622634 36.530868 31.120538 34.25 33.4375 C 33.018033 34.688962 31.753885 35.845848 30.75 37.0625 C 29.780865 38.237037 29.020067 39.507198 28.96875 40.96875 C 28.904549 40.967914 28.909146 40.969639 28.84375 40.96875 C 26.587468 40.93807 24.062364 40.87631 23.375 40.8125 C 20.807292 40.573466 18.931027 39.911986 17.78125 39.1875 C 16.631473 38.463014 16.28125 37.714552 16.28125 37.25 C 16.28125 37.17865 16.29392 37.088568 16.3125 37 C 16.485315 37.100837 16.666075 37.210597 16.875 37.3125 C 17.982825 37.852841 19.638708 38.40625 21.78125 38.40625 C 24.859287 38.40625 27.27525 37.643379 28.96875 36.6875 C 29.8155 36.209561 30.484789 35.700272 30.96875 35.15625 C 31.452711 34.612228 31.8125 34.053317 31.8125 33.3125 C 31.8125 32.302529 31.118647 31.552978 30.5 31.21875 C 29.881353 30.884522 29.371152 30.78125 28.9375 30.78125 C 28.141464 30.78125 27.451126 31.081338 26.59375 31.4375 C 25.736374 31.793662 24.726448 32.239569 23.625 32.6875 C 21.445687 33.57377 18.825529 34.450095 15.9375 34.46875 C 15.759131 34.426904 14.116945 34.037642 12.125 33.34375 C 10.263651 32.695351 8.2083681 31.727871 7.1875 30.84375 C 7.4235996 30.076169 7.6875 29.02359 7.6875 28 C 7.6875 26.705038 7.4335785 25.721089 7.21875 25.09375 C 7.517421 24.882061 7.9108338 24.650804 8.4375 24.3125 z M 23.25 24.71875 L 27.09375 25.21875 C 26.778699 25.422187 26.53125 25.812044 26.53125 26.28125 C 26.53125 26.858555 26.875645 27.343249 27.3125 27.46875 C 27.013455 27.484527 26.663875 27.444 26.25 27.375 C 23.261 26.877 23.25 24.71875 23.25 24.71875 z M 28.09375 25.34375 L 28.90625 25.4375 C 28.90625 25.4375 29.275953 26.839719 28.0625 27.3125 C 28.333968 27.095482 28.5 26.710121 28.5 26.28125 C 28.5 25.882657 28.333592 25.565952 28.09375 25.34375 z M 3.46875 25.71875 C 4.2899613 25.681964 5.0045186 25.766699 5.375 25.8125 C 5.5180509 26.252729 5.6875 26.962585 5.6875 28 C 5.6875 28.54471 5.5192175 29.27865 5.34375 29.90625 C 4.6294968 29.672628 3.9061457 29.331756 3.34375 28.875 C 2.5292856 28.213523 2 27.397581 2 26.09375 C 2 25.982271 1.939698 26.05236 2.1875 25.9375 C 2.4353023 25.822636 2.9299552 25.742883 3.46875 25.71875 z M 28.9375 32.78125 C 28.9448 32.78125 29.345897 32.85173 29.5625 32.96875 C 29.779103 33.085772 29.8125 33.081471 29.8125 33.3125 C 29.780601 33.375856 29.678337 33.5769 29.46875 33.8125 C 29.169336 34.149072 28.68375 34.551564 28 34.9375 C 26.6325 35.709371 24.535213 36.40625 21.78125 36.40625 C 20.749828 36.40625 19.90942 36.231291 19.1875 36.03125 C 21.114579 35.667679 22.928041 35.16365 24.40625 34.5625 C 25.559677 34.093431 26.545532 33.612838 27.34375 33.28125 C 28.141968 32.949662 28.788036 32.78125 28.9375 32.78125 z" color="#000" overflow="visible" font-family="Sans"/>
</svg>